<?xml version="1.0" encoding="utf-8"?><svg xmlns="http://www.w3.org/2000/svg" xmlns:xlink="http://www.w3.org/1999/xlink" width="150px" height="150px" viewBox="0 0 100 100" preserveAspectRatio="xMidYMid" style="margin-right:-2px;display:block;animation-play-state:paused" ><g transform="rotate(0 50 50)" style="transform:matrix(1, 0, 0, 1, 0, 0);animation-play-state:paused" ><rect x="48.5" y="23.5" rx="1.5" ry="1.87" width="3" height="17" fill="#000000" opacity="0.1" style="opacity:0.1;animation-play-state:paused" ></rect></g>
<g transform="rotate(36 50 50)" style="transform:matrix(0.809017, 0.587785, -0.587785, 0.809017, 38.9384, -19.8401);animation-play-state:paused" ><rect x="48.5" y="23.5" rx="1.5" ry="1.87" width="3" height="17" fill="#000000" opacity="0.2" style="opacity:0.2;animation-play-state:paused" ></rect></g>
<g transform="rotate(72 50 50)" style="transform:matrix(0.309017, 0.951057, -0.951057, 0.309017, 82.102, -13.0037);animation-play-state:paused" ><rect x="48.5" y="23.5" rx="1.5" ry="1.87" width="3" height="17" fill="#000000" opacity="0.3" style="opacity:0.3;animation-play-state:paused" ></rect></g>
<g transform="rotate(108 50 50)" style="transform:matrix(-0.309017, 0.951057, -0.951057, -0.309017, 113.004, 17.898);animation-play-state:paused" ><rect x="48.5" y="23.5" rx="1.5" ry="1.87" width="3" height="17" fill="#000000" opacity="0.4" style="opacity:0.4;animation-play-state:paused" ></rect></g>
<g transform="rotate(144 50 50)" style="transform:matrix(-0.809017, 0.587785, -0.587785, -0.809017, 119.84, 61.0616);animation-play-state:paused" ><rect x="48.5" y="23.5" rx="1.5" ry="1.87" width="3" height="17" fill="#000000" opacity="0.5" style="opacity:0.5;animation-play-state:paused" ></rect></g>
<g transform="rotate(180 50 50)" style="transform:matrix(-1, 0, 0, -1, 100, 100);animation-play-state:paused" ><rect x="48.5" y="23.5" rx="1.5" ry="1.87" width="3" height="17" fill="#000000" opacity="0.6" style="opacity:0.6;animation-play-state:paused" ></rect></g>
<g transform="rotate(216 50 50)" style="transform:matrix(-0.809017, -0.587785, 0.587785, -0.809017, 61.0616, 119.84);animation-play-state:paused" ><rect x="48.5" y="23.5" rx="1.5" ry="1.87" width="3" height="17" fill="#000000" opacity="0.7" style="opacity:0.7;animation-play-state:paused" ></rect></g>
<g transform="rotate(252 50 50)" style="transform:matrix(-0.309017, -0.951057, 0.951057, -0.309017, 17.898, 113.004);animation-play-state:paused" ><rect x="48.5" y="23.5" rx="1.5" ry="1.87" width="3" height="17" fill="#000000" opacity="0.8" style="opacity:0.8;animation-play-state:paused" ></rect></g>
<g transform="rotate(288 50 50)" style="transform:matrix(0.309017, -0.951057, 0.951057, 0.309017, -13.0037, 82.102);animation-play-state:paused" ><rect x="48.5" y="23.5" rx="1.5" ry="1.87" width="3" height="17" fill="#000000" opacity="0.9" style="opacity:0.9;animation-play-state:paused" ></rect></g>
<g transform="rotate(324 50 50)" style="transform:matrix(0.809017, -0.587785, 0.587785, 0.809017, -19.8401, 38.9384);animation-play-state:paused" ><rect x="48.5" y="23.5" rx="1.5" ry="1.87" width="3" height="17" fill="#000000" opacity="1" style="animation-play-state:paused" ></rect></g></svg>